<svg width="274" height="85" viewBox="0 0 274 85" fill="none" xmlns="http://www.w3.org/2000/svg">
<g clip-path="url(#clip0_1352_1652)">
<rect y="42.4268" width="60" height="60" rx="5" transform="rotate(-45 0 42.4268)" fill="#82954B"/>
<path d="M63 19.375C58.7468 59.75 40.3165 77.2812 31.6329 81C50.3468 41.05 32.3418 21.8542 21 17.25L25.7848 13C37.6937 13.425 44.2152 25.2187 45.9873 31.0625C46.4127 23.8375 54.6709 16.7187 58.7468 14.0625L63 19.375Z" fill="white"/>
<path d="M57.1257 22.0676C62.2545 38.7504 46.3863 61.2473 37.8111 70.4104C49.7388 37.8843 36.1921 22.5842 27.9277 19C40.0569 19.8332 45.2193 32.6268 46.4871 39.8015C45.5329 31.5383 53.076 24.5872 57.1257 22.0676Z" fill="#BABD42"/>
<path d="M45.8947 31C39.1579 17.1476 31.1579 13.6844 28 13.6844L38.5263 3.49883C41.0526 1.05429 44.1404 2.14075 45.3684 2.98955L58 15.2123C48.7368 21.3237 46.0702 28.2838 45.8947 31Z" fill="#EFD345"/>
</g>
<path d="M102.653 55V30.15H119.208V33.615H106.573V41.035H117.143V44.29H106.573V55H102.653ZM119.324 49.645C119.324 48.4783 119.65 47.4633 120.304 46.6C120.98 45.7133 121.902 45.0367 123.069 44.57C124.235 44.08 125.589 43.835 127.129 43.835C127.945 43.835 128.774 43.8933 129.614 44.01C130.477 44.1267 131.235 44.3133 131.889 44.57V43.415C131.889 42.1317 131.504 41.1283 130.734 40.405C129.964 39.6817 128.855 39.32 127.409 39.32C126.382 39.32 125.414 39.5067 124.504 39.88C123.594 40.23 122.625 40.7317 121.599 41.385L120.304 38.795C121.517 37.9783 122.73 37.3717 123.944 36.975C125.18 36.5783 126.475 36.38 127.829 36.38C130.279 36.38 132.204 37.0333 133.604 38.34C135.027 39.6233 135.739 41.455 135.739 43.835V50.66C135.739 51.1033 135.809 51.4183 135.949 51.605C136.112 51.7917 136.38 51.8967 136.754 51.92V55C136.404 55.07 136.089 55.1167 135.809 55.14C135.529 55.1633 135.295 55.175 135.109 55.175C134.292 55.175 133.674 54.9767 133.254 54.58C132.834 54.1833 132.589 53.7167 132.519 53.18L132.414 52.13C131.62 53.1567 130.605 53.95 129.369 54.51C128.132 55.07 126.884 55.35 125.624 55.35C124.41 55.35 123.325 55.105 122.369 54.615C121.412 54.1017 120.665 53.4133 120.129 52.55C119.592 51.6867 119.324 50.7183 119.324 49.645ZM130.979 50.765C131.259 50.4617 131.48 50.1583 131.644 49.855C131.807 49.5517 131.889 49.2833 131.889 49.05V46.95C131.235 46.6933 130.547 46.5067 129.824 46.39C129.1 46.25 128.389 46.18 127.689 46.18C126.289 46.18 125.145 46.46 124.259 47.02C123.395 47.58 122.964 48.35 122.964 49.33C122.964 49.8667 123.104 50.38 123.384 50.87C123.687 51.36 124.107 51.7567 124.644 52.06C125.204 52.3633 125.892 52.515 126.709 52.515C127.549 52.515 128.354 52.3517 129.124 52.025C129.894 51.6983 130.512 51.2783 130.979 50.765ZM150.7 40.02C149.206 40.0433 147.876 40.3817 146.71 41.035C145.566 41.6883 144.75 42.61 144.26 43.8V55H140.41V36.695H143.98V40.79C144.61 39.53 145.438 38.5267 146.465 37.78C147.491 37.01 148.576 36.59 149.72 36.52C149.953 36.52 150.14 36.52 150.28 36.52C150.443 36.52 150.583 36.5317 150.7 36.555V40.02ZM181.5 55H177.65V44.745C177.65 43.0417 177.37 41.7933 176.81 41C176.25 40.2067 175.434 39.81 174.36 39.81C173.287 39.81 172.284 40.2183 171.35 41.035C170.44 41.8283 169.799 42.8667 169.425 44.15V55H165.575V44.745C165.575 43.0417 165.295 41.7933 164.735 41C164.175 40.2067 163.37 39.81 162.32 39.81C161.247 39.81 160.244 40.2067 159.31 41C158.4 41.7933 157.747 42.8317 157.35 44.115V55H153.5V36.695H157V40.37C157.724 39.0867 158.669 38.1067 159.835 37.43C161.025 36.73 162.379 36.38 163.895 36.38C165.412 36.38 166.602 36.7767 167.465 37.57C168.352 38.3633 168.9 39.355 169.11 40.545C169.904 39.1917 170.872 38.165 172.015 37.465C173.182 36.7417 174.512 36.38 176.005 36.38C177.079 36.38 177.977 36.5783 178.7 36.975C179.424 37.3717 179.984 37.92 180.38 38.62C180.777 39.2967 181.057 40.09 181.22 41C181.407 41.8867 181.5 42.8317 181.5 43.835V55ZM201.093 35.995C200.859 35.7383 200.521 35.47 200.078 35.19C199.634 34.8867 199.109 34.6067 198.503 34.35C197.896 34.0933 197.243 33.8833 196.543 33.72C195.843 33.5567 195.119 33.475 194.373 33.475C192.739 33.475 191.526 33.7783 190.733 34.385C189.939 34.9917 189.543 35.8317 189.543 36.905C189.543 37.6983 189.764 38.3283 190.208 38.795C190.651 39.2383 191.328 39.6117 192.238 39.915C193.148 40.2183 194.291 40.545 195.668 40.895C197.348 41.2917 198.806 41.77 200.043 42.33C201.279 42.8667 202.224 43.59 202.878 44.5C203.531 45.41 203.858 46.6117 203.858 48.105C203.858 49.365 203.624 50.45 203.158 51.36C202.691 52.27 202.038 53.0167 201.198 53.6C200.358 54.16 199.389 54.58 198.293 54.86C197.196 55.1167 196.018 55.245 194.758 55.245C193.521 55.245 192.284 55.1167 191.048 54.86C189.834 54.6033 188.668 54.23 187.548 53.74C186.451 53.2267 185.436 52.6083 184.503 51.885L186.288 48.525C186.591 48.8283 187.023 49.1667 187.583 49.54C188.166 49.89 188.831 50.2283 189.578 50.555C190.348 50.8817 191.176 51.1617 192.063 51.395C192.973 51.605 193.894 51.71 194.828 51.71C196.391 51.71 197.581 51.4417 198.398 50.905C199.238 50.345 199.658 49.5517 199.658 48.525C199.658 47.685 199.389 47.02 198.853 46.53C198.316 46.0167 197.534 45.585 196.508 45.235C195.481 44.885 194.256 44.535 192.833 44.185C191.199 43.7417 189.834 43.2633 188.738 42.75C187.641 42.2133 186.813 41.5367 186.253 40.72C185.716 39.88 185.448 38.8183 185.448 37.535C185.448 35.9017 185.844 34.525 186.638 33.405C187.431 32.2617 188.504 31.41 189.858 30.85C191.234 30.2667 192.774 29.975 194.478 29.975C195.598 29.975 196.659 30.1033 197.663 30.36C198.666 30.5933 199.599 30.92 200.463 31.34C201.349 31.76 202.154 32.2383 202.878 32.775L201.093 35.995ZM217.108 54.055C216.782 54.2183 216.373 54.3933 215.883 54.58C215.393 54.7667 214.833 54.93 214.203 55.07C213.597 55.21 212.967 55.28 212.313 55.28C211.52 55.28 210.785 55.14 210.108 54.86C209.432 54.58 208.883 54.1367 208.463 53.53C208.067 52.9 207.868 52.095 207.868 51.115V39.67H205.453V36.695H207.868V30.675H211.718V36.695H215.708V39.67H211.718V49.89C211.765 50.52 211.963 50.9867 212.313 51.29C212.687 51.5933 213.142 51.745 213.678 51.745C214.215 51.745 214.728 51.6517 215.218 51.465C215.708 51.2783 216.07 51.1267 216.303 51.01L217.108 54.055ZM218.445 49.645C218.445 48.4783 218.772 47.4633 219.425 46.6C220.102 45.7133 221.023 45.0367 222.19 44.57C223.357 44.08 224.71 43.835 226.25 43.835C227.067 43.835 227.895 43.8933 228.735 44.01C229.598 44.1267 230.357 44.3133 231.01 44.57V43.415C231.01 42.1317 230.625 41.1283 229.855 40.405C229.085 39.6817 227.977 39.32 226.53 39.32C225.503 39.32 224.535 39.5067 223.625 39.88C222.715 40.23 221.747 40.7317 220.72 41.385L219.425 38.795C220.638 37.9783 221.852 37.3717 223.065 36.975C224.302 36.5783 225.597 36.38 226.95 36.38C229.4 36.38 231.325 37.0333 232.725 38.34C234.148 39.6233 234.86 41.455 234.86 43.835V50.66C234.86 51.1033 234.93 51.4183 235.07 51.605C235.233 51.7917 235.502 51.8967 235.875 51.92V55C235.525 55.07 235.21 55.1167 234.93 55.14C234.65 55.1633 234.417 55.175 234.23 55.175C233.413 55.175 232.795 54.9767 232.375 54.58C231.955 54.1833 231.71 53.7167 231.64 53.18L231.535 52.13C230.742 53.1567 229.727 53.95 228.49 54.51C227.253 55.07 226.005 55.35 224.745 55.35C223.532 55.35 222.447 55.105 221.49 54.615C220.533 54.1017 219.787 53.4133 219.25 52.55C218.713 51.6867 218.445 50.7183 218.445 49.645ZM230.1 50.765C230.38 50.4617 230.602 50.1583 230.765 49.855C230.928 49.5517 231.01 49.2833 231.01 49.05V46.95C230.357 46.6933 229.668 46.5067 228.945 46.39C228.222 46.25 227.51 46.18 226.81 46.18C225.41 46.18 224.267 46.46 223.38 47.02C222.517 47.58 222.085 48.35 222.085 49.33C222.085 49.8667 222.225 50.38 222.505 50.87C222.808 51.36 223.228 51.7567 223.765 52.06C224.325 52.3633 225.013 52.515 225.83 52.515C226.67 52.515 227.475 52.3517 228.245 52.025C229.015 51.6983 229.633 51.2783 230.1 50.765ZM246.041 55.35C244.501 55.35 243.042 55.105 241.666 54.615C240.289 54.1017 239.111 53.3433 238.131 52.34L239.566 49.75C240.616 50.6833 241.666 51.36 242.716 51.78C243.789 52.2 244.851 52.41 245.901 52.41C246.974 52.41 247.849 52.2117 248.526 51.815C249.202 51.395 249.541 50.7883 249.541 49.995C249.541 49.4117 249.366 48.98 249.016 48.7C248.666 48.42 248.152 48.175 247.476 47.965C246.822 47.755 246.029 47.5217 245.096 47.265C243.789 46.8683 242.692 46.46 241.806 46.04C240.919 45.5967 240.254 45.06 239.811 44.43C239.367 43.8 239.146 42.995 239.146 42.015C239.146 40.825 239.449 39.81 240.056 38.97C240.662 38.13 241.502 37.4883 242.576 37.045C243.672 36.6017 244.932 36.38 246.356 36.38C247.686 36.38 248.911 36.59 250.031 37.01C251.174 37.4067 252.177 38.0367 253.041 38.9L251.396 41.455C250.579 40.7083 249.739 40.16 248.876 39.81C248.036 39.46 247.126 39.285 246.146 39.285C245.586 39.285 245.049 39.355 244.536 39.495C244.022 39.6117 243.591 39.845 243.241 40.195C242.914 40.5217 242.751 40.9883 242.751 41.595C242.751 42.085 242.891 42.4817 243.171 42.785C243.451 43.0883 243.871 43.345 244.431 43.555C244.991 43.765 245.679 43.9983 246.496 44.255C247.919 44.675 249.132 45.095 250.136 45.515C251.139 45.9117 251.909 46.4367 252.446 47.09C253.006 47.72 253.286 48.595 253.286 49.715C253.286 51.4883 252.621 52.8767 251.291 53.88C249.984 54.86 248.234 55.35 246.041 55.35ZM273.138 55H269.288V44.745C269.288 43.0883 268.985 41.8517 268.378 41.035C267.771 40.2183 266.92 39.81 265.823 39.81C265.146 39.81 264.446 39.9967 263.723 40.37C263 40.7433 262.358 41.2567 261.798 41.91C261.238 42.54 260.83 43.275 260.573 44.115V55H256.723V29.45H260.573V40.37C261.273 39.1333 262.23 38.165 263.443 37.465C264.656 36.7417 265.963 36.38 267.363 36.38C268.506 36.38 269.451 36.5783 270.198 36.975C270.945 37.3717 271.528 37.92 271.948 38.62C272.391 39.2967 272.695 40.09 272.858 41C273.045 41.8867 273.138 42.8317 273.138 43.835V55Z" fill="white"/>
<defs>
<clipPath id="clip0_1352_1652">
<rect width="60" height="60" fill="white" transform="translate(0 42.4268) rotate(-45)"/>
</clipPath>
</defs>
</svg>
